# xmcd
#
# Track frame offsets:
#	212
#	18950
#	33352
#	46595
#	61385
#	73920
#	90412
#	108800
#	122295
#	138807
#	154602
#	171427
#	184620
#	200727
#	211850
#	229297
#	243935
#	256130
#	268642
#	284062
#	303020
#	323790
#
# Disc length: 4586 seconds
#
# Revision: 1
# Processed by: cddbd v1.5PL3 Copyright (c) Steve Scherf et al.
# Submitted via: CDex 1.50Beta5
#
DISCID=2711e816
DTITLE=Conjunto Alma De Apatzingan - Vol. 2-Michoacan-Arriba Tierra
DYEAR=1900
DGENRE=
TTITLE0=La Chileca
TTITLE1=Que Bonito Par De Ojitos
TTITLE2=It'S A Yearning
TTITLE3=Daybreak Is Near
TTITLE4=Dance Of The Angels
TTITLE5=The Day You Leave
TTITLE6=I Saw The Birth Of A Cloud
TTITLE7=Look Lisa
TTITLE8=The Empassioned One
TTITLE9=Carnation Of The Spring
TTITLE10=The Witchcraft
TTITLE11=The Coward
TTITLE12=Black Eyes That Never Decieve
TTITLE13=Minuet To Senor San Antonio
TTITLE14=Minuet To A Miraculous Christ
TTITLE15=Dance Of The Irises
TTITLE16=Dance In Honor Of The Virgin
TTITLE17=Dance Of The Promise
TTITLE18=The Marijuana Truck
TTITLE19=The Growers From The Hill
TTITLE20=The Death Of Juan Ortiz
TTITLE21=The Trafficking Priest
EXTD=
EXTT0=
EXTT1=
EXTT2=
EXTT3=
EXTT4=
EXTT5=
EXTT6=
EXTT7=
EXTT8=
EXTT9=
EXTT10=
EXTT11=
EXTT12=
EXTT13=
EXTT14=
EXTT15=
EXTT16=
EXTT17=
EXTT18=
EXTT19=
EXTT20=
EXTT21=
PLAYORDER=
